<svg xmlns="http://www.w3.org/2000/svg" xmlns:svg="http://www.w3.org/2000/svg" id="svg2" width="32" height="32" version="1.1"><metadata id="metadata7"/><path id="path3034" fill="#eee" fill-opacity="1" stroke="none" d="m 11,6.0000438 a 5,5 0 1 0 -10,0 5,5 0 0 0 10,0 z"/><path id="path3034-8" fill="#aaa" fill-opacity="1" stroke="none" d="m 23,6.0000438 a 5,5 0 1 0 -10,0 5,5 0 0 0 10,0 z"/><path id="path3034-1" fill="#eee" fill-opacity="1" stroke="none" d="m 3.0000001,13.999989 a 1,1 0 1 0 -2.0000001,0 1,1 0 0 0 2.0000001,0 z"/><path id="path3034-1-5" fill="none" stroke="#eee" stroke-dasharray="none" stroke-miterlimit="4" stroke-opacity="1" stroke-width=".2" d="m 7.5,14.000033 a 1.5,1.5 0 1 0 -3,0 1.5,1.5 0 0 0 3,0 z"/><path id="path3034-1-50" fill="#888" fill-opacity="1" stroke="none" d="m 11,13.999989 a 1,1 0 1 0 -2,0 1,1 0 0 0 2,0 z"/><path id="path3034-1-50-6" fill="#eee" fill-opacity="1" stroke="none" d="m 15,13.999989 a 1,1 0 1 0 -2,0 1,1 0 0 0 2,0 z"/><path id="use2995" fill="#eee" fill-opacity="1" stroke="none" d="M 5.84375,17 C 3.2782873,17.08021 0.99874642,19.433284 1,22 c 0,2.617994 2.3820062,4.999998 5,4.999998 2.6179938,0 5,-2.382004 5,-4.999998 0.0013,-2.6709 -2.4866546,-5.083466 -5.15625,-5 z m -0.9854394,2.78125 c 0.1913142,-0.110455 3.8125,1.997839 3.8125,2.21875 0,0.22091 -3.6211858,2.329205 -3.8125,2.21875 -0.1913142,-0.110456 -0.1913142,-4.327045 0,-4.4375 z"/></svg>