<svg xmlns="http://www.w3.org/2000/svg" xmlns:svg="http://www.w3.org/2000/svg" xmlns:xlink="http://www.w3.org/1999/xlink" id="svg2" width="128" height="128" version="1.1"><metadata id="metadata7"/><rect id="rect3030-7" width="128" height="128" x="0" y="0" fill="#2a2a2a" fill-opacity="1" stroke="none"/><path id="path3781" fill="#f2f2f2" fill-opacity="1" stroke="none" d="m 31.160637,74.403702 a 5.1774597,5.1774597 0 1 1 -10.35492,0 5.1774597,5.1774597 0 1 1 10.35492,0 z" transform="matrix(1.0925926,0,0,1.0925926,24.845,-16.946152)"/><path id="path3034-1" fill="#f4f4f4" fill-opacity="1" stroke="none" d="m 48.575054,56.371643 a 1.1289115,1.1289115 0 1 1 2.074066,-0.892102 1.1289115,1.1289115 0 0 1 -2.074066,0.892102 z"/><path id="path3034-1-5" fill="none" stroke="#eee" stroke-dasharray="none" stroke-miterlimit="4" stroke-opacity="1" stroke-width=".198" d="m 48.056568,56.594691 a 1.6933671,1.6933671 0 1 1 3.111167,-1.338114 1.6933671,1.6933671 0 0 1 -3.111167,1.338114 z"/><use id="use3039" width="16" height="16" x="0" y="0" opacity=".75" transform="matrix(0.89735364,-0.44131218,0.44131218,0.89735364,-22.932866,30.097774)" xlink:href="#path3034-1"/><use id="use3041" width="16" height="16" x="0" y="0" opacity=".5" transform="matrix(0.65267295,-0.75763976,0.75763976,0.65267295,-30.262151,62.681484)" xlink:href="#path3034-1"/><text id="text3050" x="127.841" y="70.009" fill="#f2f2f2" fill-opacity="1" stroke="none" font-family="Quicksand" font-size="15.886" font-stretch="normal" font-style="normal" font-variant="normal" font-weight="bold" letter-spacing="0" text-anchor="end" word-spacing="0" writing-mode="lr-tb" xml:space="preserve" style="text-align:end;line-height:125%;-inkscape-font-specification:Quicksand Bold"><tspan font-stretch="normal" style="text-align:end;line-height:125%;-inkscape-font-specification:Quicksand Bold" id="tspan3052" x="88.515" y="70.009" fill="#f2f2f2" fill-opacity="1" font-family="Quicksand" font-size="15.886" font-style="normal" font-variant="normal" font-weight="bold" text-anchor="end" writing-mode="lr-tb">rbit</tspan></text></svg>